<?xml version="1.0" encoding="UTF-8"?>
<svg width="78px" height="78px" viewBox="0 0 78 78" version="1.1" xmlns="http://www.w3.org/2000/svg" xmlns:xlink="http://www.w3.org/1999/xlink">
    <!-- Generator: Sketch 40.3 (33839) - http://www.bohemiancoding.com/sketch -->
    <title>Shape</title>
    <desc>Created with Sketch.</desc>
    <defs></defs>
    <g id="Page-1" stroke="none" stroke-width="1" fill="none" fill-rule="evenodd">
        <path d="M71.807,6.191 C64.592,-1.025 59.178,0.058 59.178,0.058 L33.918,25.317 L5.049,54.185 L0,78 L23.812,72.949 L52.681,44.08 L77.941,18.823 C77.941,18.824 79.025,13.409 71.807,6.191 L71.807,6.191 Z M22.395,70.086 L14.278,71.834 C13.493,70.367 12.551,68.902 10.823,67.175 C9.096,65.448 7.63,64.506 6.165,63.719 L7.915,55.603 L10.261,53.255 C10.261,53.255 14.679,53.343 19.665,58.333 C24.653,63.32 24.743,67.74 24.743,67.74 L22.395,70.086 L22.395,70.086 Z" id="Shape" fill="#000000"></path>
    </g>
</svg>