<?xml version="1.0" encoding="UTF-8" standalone="no"?>
<svg width="9px" height="9px" viewBox="0 0 9 9" version="1.1" xmlns="http://www.w3.org/2000/svg" xmlns:xlink="http://www.w3.org/1999/xlink">
    <!-- Generator: Sketch 40.1 (33804) - http://www.bohemiancoding.com/sketch -->
    <title>Shape</title>
    <desc>Created with Sketch.</desc>
    <defs></defs>
    <g id="Page-1" stroke="none" stroke-width="1" fill="none" fill-rule="evenodd">
        <path d="M3.5,-1.73472348e-18 C1.57,-1.73472348e-18 0,1.57 0,3.5 C0,5.43 1.57,7 3.5,7 C4.09,7 4.67,6.86 5.16,6.59 C5.19924958,6.63723322 5.24276678,6.68075042 5.29,6.72 L6.29,7.72 C6.54159764,8.00310531 6.92934751,8.12349143 7.29704259,8.03266018 C7.66473768,7.94182893 7.95182893,7.65473768 8.04266018,7.28704259 C8.13349143,6.91934751 8.01310531,6.53159764 7.73,6.28 L6.73,5.28 C6.68128772,5.23127023 6.62766953,5.18770546 6.57,5.15 C6.84,4.66 7.01,4.09 7.01,3.49 C7.01,1.56 5.44,-0.01 3.51,-0.01 L3.5,-1.73472348e-18 Z M3.5,1 C4.89,1 6,2.11 6,3.5 C6,4.16 5.76,4.77 5.34,5.22 C5.33,5.23 5.32,5.24 5.31,5.25 C5.26276678,5.28924958 5.21924958,5.33276678 5.18,5.38 C4.74,5.78 4.14,6.01 3.49,6.01 C2.1,6.01 0.99,4.9 0.99,3.51 C0.99,2.12 2.1,1.01 3.49,1.01 L3.5,1 Z" id="Shape" fill="#FFFFFF"></path>
    </g>
</svg>